<?xml version="1.0" encoding="UTF-8" standalone="no"?>
<!DOCTYPE svg PUBLIC "-//W3C//DTD SVG 1.1//EN" "http://www.w3.org/Graphics/SVG/1.1/DTD/svg11.dtd">
<svg width="100%" height="100%" viewBox="0 0 244 137" version="1.1" xmlns="http://www.w3.org/2000/svg" xmlns:xlink="http://www.w3.org/1999/xlink" xml:space="preserve" xmlns:serif="http://www.serif.com/" style="fill-rule:evenodd;clip-rule:evenodd;stroke-linejoin:round;stroke-miterlimit:2;">
    <g transform="matrix(1,0,0,1,-607.935,-233.848)">
        <g transform="matrix(1,0,0,1,0,-12.1881)">
            <rect x="607.935" y="246.036" width="243.306" height="136.41" style="fill:none;"/>
            <clipPath id="_clip1">
                <rect x="607.935" y="246.036" width="243.306" height="136.41"/>
            </clipPath>
            <g clip-path="url(#_clip1)">
                <g transform="matrix(0.396507,0,0,0.396507,445.275,204.77)">
                    <g transform="matrix(1,0,0,1,600.131,163.159)">
                        <path d="M140.01,40.03C157.37,29.58 178.93,34.47 195.35,44.61C198.07,45.3 198.4,47.75 197.98,50.2L197.07,50.09C180.95,43.86 162.45,40.01 145.61,45.56C134.52,49.97 123.63,61.22 124.71,73.72C121.87,74.9 121.22,78.32 119.85,80.74C118.3,83.67 116.69,84.9 116.28,80.72C119.81,65.33 124.34,47.43 140.01,40.03Z" style="fill:rgb(116,159,67);fill-rule:nonzero;"/>
                    </g>
                    <g transform="matrix(1,0,0,1,600.131,163.159)">
                        <path d="M145.61,45.56C162.45,40.01 180.95,43.86 197.07,50.09C195.39,63.06 190.18,77.92 176.65,82.6C158.89,87.17 140.84,80.94 124.71,73.72C123.63,61.22 134.52,49.97 145.61,45.56M149.39,50.44C146.56,51.19 143.79,52.15 141.07,53.21C142.28,56.66 152.95,55.41 149.8,59.9C142.72,59.1 132.77,55.87 129.02,64C128.35,66.04 123.63,70.91 127.99,72.01C136.62,76.32 145.99,78.63 155.37,80.61C170.3,84.06 185.63,69.18 182.92,54.2C172.99,48.38 160.38,49.91 149.39,50.44Z" style="fill:rgb(103,144,51);fill-rule:nonzero;"/>
                    </g>
                    <g transform="matrix(1,0,0,1,600.131,163.159)">
                        <path d="M149.39,50.44C160.38,49.91 172.99,48.38 182.92,54.2C185.63,69.18 170.3,84.06 155.37,80.61C145.99,78.63 136.62,76.32 127.99,72.01C123.63,70.91 128.35,66.04 129.02,64C132.77,55.87 142.72,59.1 149.8,59.9C152.95,55.41 142.28,56.66 141.07,53.21C143.79,52.15 146.56,51.19 149.39,50.44Z" style="fill:rgb(113,157,63);fill-rule:nonzero;"/>
                    </g>
                    <g transform="matrix(1,0,0,1,600.131,163.159)">
                        <path d="M115.42,91.67C115.42,88.14 111.61,82.34 116.28,80.72C116.69,84.9 118.3,83.67 119.85,80.74C121.1,81.5 122.37,82.25 123.62,83.02C137.03,92.14 148.43,105.21 152.81,121.07C153.28,123.96 153.95,126.82 154.36,129.72C154.19,133.52 154,137.33 153.79,141.14C151.52,140.4 149.22,139.77 146.94,139.07C146.94,135.6 147.29,132.09 146.38,128.7C144.99,122.1 143.04,115.47 139.18,109.85C135.12,102.81 129.56,96.77 123.1,91.87C124.24,107.33 118.27,122.89 107.75,134.15C106.3,131.94 104.88,129.71 103.57,127.42C109.96,119.65 114.37,110.4 115.32,100.28C115.81,97.42 116.27,94.5 115.42,91.67Z" style="fill:rgb(31,31,31);fill-rule:nonzero;"/>
                    </g>
                    <g transform="matrix(1,0,0,1,600.131,163.159)">
                        <path d="M115.42,91.67C116.27,94.5 115.81,97.42 115.32,100.28C114.88,97.43 114.83,94.51 115.42,91.67Z" style="fill:rgb(84,84,84);fill-rule:nonzero;"/>
                    </g>
                    <g transform="matrix(1,0,0,1,600.131,163.159)">
                        <path d="M59.84,127.88C70.28,114.48 92.61,114.49 103.57,127.42C104.88,129.71 106.3,131.94 107.75,134.15C110.54,141.9 110.92,150.55 107,158.01C99.31,176.1 72.25,178.9 60.08,163.87C51.8,153.79 51.68,138.12 59.84,127.88M68.64,123.68C63.9,127.2 64.89,136.9 71.24,138.05C71.69,139.88 76.29,139.86 76.8,138.08C79.73,138.36 81.19,135.06 82.04,132.77C83.87,132.7 83.87,128.31 82.07,128.19C81.79,122.45 72.38,119.25 68.64,123.68M103.16,138.93C101.16,148.66 96.61,158.63 87.39,163.44C85.51,165.44 81.87,166.85 81.94,170C89.65,170.31 98.61,167.75 102.73,160.72C106.61,155.43 111.53,141.62 103.16,138.93Z" style="fill:rgb(234,63,64);fill-rule:nonzero;"/>
                    </g>
                    <g transform="matrix(1,0,0,1,600.131,163.159)">
                        <path d="M152.81,121.07C156.5,126.35 156.87,135.9 156.99,143.03C156.53,142.75 155.59,142.19 155.13,141.91C154.88,137.84 154.93,133.75 154.36,129.72C153.95,126.82 153.28,123.96 152.81,121.07Z" style="fill:rgb(204,203,203);fill-rule:nonzero;"/>
                    </g>
                    <g transform="matrix(1,0,0,1,600.131,163.159)">
                        <path d="M68.64,123.68C72.38,119.25 81.79,122.45 82.07,128.19C81.98,129.71 81.97,131.24 82.04,132.77C81.19,135.06 79.73,138.36 76.8,138.08C74.95,137.96 73.09,137.96 71.24,138.05C64.89,136.9 63.9,127.2 68.64,123.68Z" style="fill:rgb(252,250,248);fill-rule:nonzero;"/>
                    </g>
                    <g transform="matrix(1,0,0,1,600.131,163.159)">
                        <path d="M82.07,128.19C83.87,128.31 83.87,132.7 82.04,132.77C81.97,131.24 81.98,129.71 82.07,128.19Z" style="fill:rgb(243,155,156);fill-rule:nonzero;"/>
                    </g>
                    <g transform="matrix(1,0,0,1,600.131,163.159)">
                        <path d="M146.38,128.7C147.29,132.09 146.94,135.6 146.94,139.07L145.98,138.91C146.04,135.51 146.23,132.09 146.38,128.7Z" style="fill:rgb(156,157,157);fill-rule:nonzero;"/>
                    </g>
                    <g transform="matrix(1,0,0,1,600.131,163.159)">
                        <path d="M154.36,129.72C154.93,133.75 154.88,137.84 155.13,141.91C154.79,141.72 154.13,141.33 153.79,141.14C154,137.33 154.19,133.52 154.36,129.72Z" style="fill:rgb(145,140,140);fill-rule:nonzero;"/>
                    </g>
                    <g transform="matrix(1,0,0,1,600.131,163.159)">
                        <path d="M71.24,138.05C73.09,137.96 74.95,137.96 76.8,138.08C76.29,139.86 71.69,139.88 71.24,138.05Z" style="fill:rgb(247,170,169);fill-rule:nonzero;"/>
                    </g>
                    <g transform="matrix(1,0,0,1,600.131,163.159)">
                        <path d="M103.16,138.93C111.53,141.62 106.61,155.43 102.73,160.72C98.61,167.75 89.65,170.31 81.94,170C81.87,166.85 85.51,165.44 87.39,163.44C96.61,158.63 101.16,148.66 103.16,138.93Z" style="fill:rgb(187,42,42);fill-rule:nonzero;"/>
                    </g>
                    <g transform="matrix(1,0,0,1,600.131,163.159)">
                        <path d="M112.58,156.18C118.78,144.17 132.56,137.02 145.98,138.91L146.94,139.07C149.22,139.77 151.52,140.4 153.79,141.14C154.13,141.33 154.79,141.72 155.13,141.91C155.59,142.19 156.53,142.75 156.99,143.03C164.81,147.3 170.04,155.42 171.98,163.97C172.08,168.06 172.18,172.15 172.27,176.25C169.39,188.69 159.23,199.63 146.25,201.29C142.74,201.22 139.26,201.14 135.77,201.18C129,200.11 122.97,196.57 118.07,191.85C113.71,186.92 110.22,180.68 109.93,173.99C109.71,167.9 110.53,161.9 112.58,156.18M126.71,147.71C121.38,151.71 122.92,160.68 128.96,163.07C133.8,166.02 141.76,162.74 142.06,156.8C143.86,156.67 143.86,152.32 142.07,152.18C141.15,145.71 131.11,142.1 126.71,147.71M165.12,161.99C162.15,166.9 162.7,173.35 159.02,178.02C155.28,185.72 146.83,189.18 141.18,195.19C139.94,199.95 149.92,195.9 152.21,196.19C164.99,192.21 175.11,172.49 165.12,161.99Z" style="fill:rgb(234,62,63);fill-rule:nonzero;"/>
                    </g>
                    <g transform="matrix(1,0,0,1,600.131,163.159)">
                        <path d="M126.71,147.71C131.11,142.1 141.15,145.71 142.07,152.18C141.98,153.72 141.98,155.26 142.06,156.8C141.76,162.74 133.8,166.02 128.96,163.07C122.92,160.68 121.38,151.71 126.71,147.71Z" style="fill:rgb(252,249,248);fill-rule:nonzero;"/>
                    </g>
                    <g transform="matrix(1,0,0,1,600.131,163.159)">
                        <path d="M142.07,152.18C143.86,152.32 143.86,156.67 142.06,156.8C141.98,155.26 141.98,153.72 142.07,152.18Z" style="fill:rgb(247,148,149);fill-rule:nonzero;"/>
                    </g>
                    <g transform="matrix(1,0,0,1,600.131,163.159)">
                        <path d="M165.12,161.99C175.11,172.49 164.99,192.21 152.21,196.19C149.92,195.9 139.94,199.95 141.18,195.19C146.83,189.18 155.28,185.72 159.02,178.02C162.7,173.35 162.15,166.9 165.12,161.99Z" style="fill:rgb(186,42,42);fill-rule:nonzero;"/>
                    </g>
                    <g transform="matrix(1,0,0,1,600.131,163.159)">
                        <path d="M171.98,163.97C172.25,164.46 172.8,165.42 173.07,165.9C172.96,169.33 173.44,172.93 172.27,176.25C172.18,172.15 172.08,168.06 171.98,163.97Z" style="fill:rgb(209,149,145);fill-rule:nonzero;"/>
                    </g>
                    <g transform="matrix(1,0,0,1,600.131,163.159)">
                        <path d="M135.77,201.18C139.26,201.14 142.74,201.22 146.25,201.29C142.74,202.06 139.25,202.03 135.77,201.18Z" style="fill:rgb(217,121,127);fill-rule:nonzero;"/>
                    </g>
                </g>
                <g transform="matrix(0.282295,0,0,0.282295,506.167,106.007)">
                    <path d="M477,470.1C488.31,455.73 511.19,455.12 523.1,469.02C529.93,465.32 536.41,459.45 544.98,459.87C554.39,460.04 563.07,466.17 567.81,474.14C575.84,489.96 564.85,510.42 547.27,512.22C560.25,528.56 547.15,555.01 526.29,554.29C527.48,568.58 517.03,584.38 501.81,584.03C502.76,582.87 505.43,582.03 503.95,580.29C509.02,580.9 516.99,577.98 516.95,572.24C512.33,568.68 500.74,571.14 503.03,578.95C500.44,573.32 492.85,571.86 491.36,565.61C490.15,556.66 498.57,550.65 504.77,545.63C506.28,542.44 501.38,534.86 498.91,539.93C494.58,548.61 485.55,553.41 476.17,554.32C475.95,558.89 475.93,563.52 475.98,568.12C474.25,566.84 474.26,564.04 474.05,562.03C477.73,552.84 469.04,552.86 463.15,550.81C452.33,544.43 446.61,529.74 452.31,518.2C453.5,514.84 457.65,509.66 449.85,511.31C458.53,511.68 464.2,504.07 472.31,502.3C477.63,500.99 474.92,491.61 471.02,490.1C463.24,493.8 455.61,498.42 449.3,504.29C447.23,506.48 448.37,509.18 449.85,511.31C447.41,511 445.09,510.16 442.9,509.07C433.93,503.9 428.43,493.38 429.93,482.99C430.51,470.28 442.58,460.21 454.92,459.84C463.31,460.06 471.19,464.17 477,470.1M491.37,465.38C486.61,466.61 479.63,469.66 481.24,475.71C486.68,483.99 499.69,475.76 501.05,468C501.48,462.84 493.78,465.76 491.37,465.38M443.27,467.28C439.8,468.62 433.24,474.72 438.65,477.45C444.35,480.11 451.73,464.93 443.27,467.28M537.27,467.28C533.58,468.83 528.04,473.79 532.71,477.32C538.13,480.38 545.86,464.82 537.27,467.28M563.31,488.32C555.29,492.92 545.74,497.06 540.01,504.06C544.35,516.24 560.96,506.13 565.22,498.24C567.97,495.33 569.81,486.16 563.31,488.32M518.36,490.34C509.66,495.97 498.21,499.57 492.98,509C494.14,513.92 503.45,510.07 500.2,518.04C504.66,518.54 501.15,511.66 505.07,511.09C511.55,509.61 517.29,505.45 521.01,500C523.05,497.15 526.51,486.02 518.36,490.34M461.39,511.35C458.62,513.38 453.82,515.01 456.1,519.74C461.89,527.66 472.06,507.12 461.39,511.35M512.28,511.28C509.18,512.99 503.86,516.38 506.68,520.34C512.41,526.28 522.32,508.63 512.28,511.28M495.31,529.32C486.54,534.27 476.91,538.47 470.18,546.23C468.21,550.8 473.74,551.96 477.07,551.29C486.93,550.54 496.51,544.29 499.69,534.65C502.6,530.78 498.26,527.73 495.31,529.32M545.3,529.3C536.9,534.87 526.98,538.53 520.16,546.22C518.27,550.66 523.44,551.74 526.71,551.65C536.61,550.48 546.05,544.25 550,534.94C552.59,531 548.41,527.67 545.3,529.3Z" style="fill:rgb(118,62,177);fill-rule:nonzero;"/>
                    <path d="M563.31,488.32C569.81,486.16 567.97,495.33 565.22,498.24C560.96,506.13 544.35,516.24 540.01,504.06C545.74,497.06 555.29,492.92 563.31,488.32Z" style="fill:rgb(99,52,157);fill-rule:nonzero;"/>
                    <path d="M449.3,504.29C455.61,498.42 463.24,493.8 471.02,490.1C474.92,491.61 477.63,500.99 472.31,502.3C464.2,504.07 458.53,511.68 449.85,511.31C448.37,509.18 447.23,506.48 449.3,504.29Z" style="fill:rgb(100,52,158);fill-rule:nonzero;"/>
                    <path d="M518.36,490.34C526.51,486.02 523.05,497.15 521.01,500C517.29,505.45 511.55,509.61 505.07,511.09C501.15,511.66 504.66,518.54 500.2,518.04C503.45,510.07 494.14,513.92 492.98,509C498.21,499.57 509.66,495.97 518.36,490.34Z" style="fill:rgb(99,52,158);fill-rule:nonzero;"/>
                    <path d="M442.9,509.07C445.09,510.16 447.41,511 449.85,511.31C457.65,509.66 453.5,514.84 452.31,518.2C452.93,512.26 443.2,514.46 442.9,509.07Z" style="fill:rgb(202,196,206);fill-rule:nonzero;"/>
                    <path d="M461.39,511.35C472.06,507.12 461.89,527.66 456.1,519.74C453.82,515.01 458.62,513.38 461.39,511.35Z" style="fill:rgb(247,244,249);fill-rule:nonzero;"/>
                    <path d="M512.28,511.28C522.32,508.63 512.41,526.28 506.68,520.34C503.86,516.38 509.18,512.99 512.28,511.28Z" style="fill:rgb(246,241,248);fill-rule:nonzero;"/>
                    <path d="M495.31,529.32C498.26,527.73 502.6,530.78 499.69,534.65C496.51,544.29 486.93,550.54 477.07,551.29C473.74,551.96 468.21,550.8 470.18,546.23C476.91,538.47 486.54,534.27 495.31,529.32Z" style="fill:rgb(99,52,158);fill-rule:nonzero;"/>
                    <path d="M545.3,529.3C548.41,527.67 552.59,531 550,534.94C546.05,544.25 536.61,550.48 526.71,551.65C523.44,551.74 518.27,550.66 520.16,546.22C526.98,538.53 536.9,534.87 545.3,529.3Z" style="fill:rgb(99,52,157);fill-rule:nonzero;"/>
                    <path d="M498.91,539.93C501.38,534.86 506.28,542.44 504.77,545.63C498.57,550.65 490.15,556.66 491.36,565.61C492.85,571.86 500.44,573.32 503.03,578.95C503.26,579.29 503.72,579.95 503.95,580.29C505.43,582.03 502.76,582.87 501.81,584.03C496.38,584.29 490.92,583.45 486.16,580.74C481.57,577.83 477.15,573.61 475.98,568.12C475.93,563.52 475.95,558.89 476.17,554.32C485.55,553.41 494.58,548.61 498.91,539.93Z" style="fill:rgb(100,53,158);fill-rule:nonzero;"/>
                    <path d="M503.03,578.95C500.74,571.14 512.33,568.68 516.95,572.24C516.99,577.98 509.02,580.9 503.95,580.29C503.72,579.95 503.26,579.29 503.03,578.95Z" style="fill:rgb(248,246,249);fill-rule:nonzero;"/>
                </g>
                <g transform="matrix(0.924064,0,0,0.924064,95.7387,48.4159)">
                    <g transform="matrix(0.364095,0,0,0.364095,482.485,172.657)">
                        <path d="M251.98,243C258.14,241.58 271.91,240.87 278.02,242.99C269.34,243 260.66,242.99 251.98,243Z" style="fill:rgb(241,204,160);fill-rule:nonzero;"/>
                    </g>
                    <g transform="matrix(0.364095,0,0,0.364095,482.485,172.657)">
                        <path d="M245.55,253.77C244.83,249.56 246.98,243.22 251.98,243C260.66,242.99 269.34,243 278.02,242.99C281.75,242.34 281.7,248.01 284.04,248.79C299.63,241.69 318.99,239.78 334.32,248.65C342.89,252.59 353.37,251.43 361.11,246.15C365.68,243.05 370.84,246.91 372.73,251.22C376.14,259.11 383.84,265.71 384.06,274.7C383.43,275.39 382.81,276.09 382.22,276.8C367.24,293.31 353.55,313.03 351.57,335.84C350.46,343.35 351.83,350.97 353.71,358.25C355.44,365.34 360.25,371.33 360.83,378.8C360.22,379.39 359.63,380 359.05,380.63C355.66,383.73 354.13,389.06 349.28,390.31C329.45,389.79 309.61,389.88 289.78,390.21C283.78,388.56 280.98,382.2 277.05,377.84C276.9,373.13 277.18,368.41 276.52,363.75C279.07,349.7 282.4,335.45 289.52,322.89C292.3,318.58 294.92,314.16 298.11,310.15C298.8,309.53 299.47,308.9 300.15,308.28C302.51,306.02 304.93,303.81 307.02,301.29C300.44,300.28 293.98,297.53 287.24,298.14C283.94,302.36 282.66,310.19 275,307.95C265.88,306.35 253.37,312.24 246.43,303.97C245.16,287.26 246.93,270.44 245.55,253.77M251.16,249.23C250.61,260.79 251.14,272.41 251.05,284C252.21,290.65 246.2,305.4 258,302.97C264.56,300.97 279.83,308.1 280.66,297.65C285.05,288.95 297.17,294.01 304.33,295.59C310.65,299.57 318.65,288.79 323.52,295.22C321.81,296.96 319.22,297.88 317.92,299.91C304.75,307.61 294.27,321.4 289.47,335.82C286.27,342.87 284.42,350.47 283.2,358.09C281.09,368.09 280.3,379.99 291.03,384.98L291.02,385.94C309.64,385.42 331.07,387.32 347.94,384.98C351.8,382.75 357.48,377.04 353.66,372.31C343.15,353.39 345.23,330.26 352.3,310.58C359.33,296.99 369.13,283.94 379.03,272.01C374.91,265.12 371.2,257.95 366.74,251.26C364.18,248.92 361.5,252.33 359,253C349.7,257.94 338.3,256.48 329.19,251.78C317.31,245.32 302.92,247.4 290.69,251.67C286.4,254.03 280.17,255.49 278.09,249.79C278.05,249.36 277.97,248.5 277.93,248.07C269.25,248.8 259.03,246.18 251.16,249.23Z" style="fill:rgb(244,144,32);fill-rule:nonzero;"/>
                    </g>
                    <g transform="matrix(0.364095,0,0,0.364095,482.485,172.657)">
                        <path d="M251.16,249.23C259.03,246.18 269.25,248.8 277.93,248.07C277.97,248.5 278.05,249.36 278.09,249.79C272.61,246.11 273.05,254.77 277.96,254.16C292.95,256.95 307.87,244.24 322.71,251.26C335.82,257.07 351.36,264.26 365.14,256.17C370.8,257.64 372.36,267.07 375.68,271.74C367.93,281.41 359.42,290.78 354.32,302.24C351.53,307.33 349.6,313.48 343.92,316.06C327.44,322.81 311.69,331.63 294.69,336.91C298.45,324.24 306.8,313.18 317.26,305.24C318.75,304.39 318.95,303.01 318.27,301.53C318.18,301.13 318.01,300.32 317.92,299.91C319.22,297.88 321.81,296.96 323.52,295.22C327.18,292.26 330.82,289.06 333.04,284.84C323.21,289.9 312.43,293.87 301.13,291.85C291.66,289.25 288.06,277.09 278.21,275.46C267.39,276.75 265.44,291.2 256.11,294.24C255.79,280.18 256.23,266.12 255.95,252.06C256.3,250.53 253.07,248.77 252.8,250.75C251.06,261.71 252.38,272.93 252,284L251.05,284C251.14,272.41 250.61,260.79 251.16,249.23Z" style="fill:rgb(214,39,39);fill-rule:nonzero;"/>
                    </g>
                    <g transform="matrix(0.364095,0,0,0.364095,482.485,172.657)">
                        <path d="M290.69,251.67C302.92,247.4 317.31,245.32 329.19,251.78C338.3,256.48 349.7,257.94 359,253C361.5,252.33 364.18,248.92 366.74,251.26C371.2,257.95 374.91,265.12 379.03,272.01C369.13,283.94 359.33,296.99 352.3,310.58C349.51,312.14 348.42,316.78 343.92,316.06C349.6,313.48 351.53,307.33 354.32,302.24C359.42,290.78 367.93,281.41 375.68,271.74C372.36,267.07 370.8,257.64 365.14,256.17C351.36,264.26 335.82,257.07 322.71,251.26C307.87,244.24 292.95,256.95 277.96,254.16C278.01,252.7 278.05,251.25 278.09,249.79C280.17,255.49 286.4,254.03 290.69,251.67Z" style="fill:rgb(187,37,31);fill-rule:nonzero;"/>
                    </g>
                    <g transform="matrix(0.364095,0,0,0.364095,482.485,172.657)">
                        <path d="M277.96,254.16C273.05,254.77 272.61,246.11 278.09,249.79C278.05,251.25 278.01,252.7 277.96,254.16Z" style="fill:rgb(244,227,223);fill-rule:nonzero;"/>
                    </g>
                    <g transform="matrix(0.364095,0,0,0.364095,482.485,172.657)">
                        <path d="M252.8,250.75C253.07,248.77 256.3,250.53 255.95,252.06C256.23,266.12 255.79,280.18 256.11,294.24C256.33,297.38 256.99,301.17 253.03,300.01C252.88,283.59 253.22,267.16 252.8,250.75Z" style="fill:rgb(252,248,246);fill-rule:nonzero;"/>
                    </g>
                    <g transform="matrix(0.364095,0,0,0.364095,482.485,172.657)">
                        <path d="M252,284C252.38,272.93 251.06,261.71 252.8,250.75C253.22,267.16 252.88,283.59 253.03,300.01C250.3,296.85 252.93,288.73 252,284Z" style="fill:rgb(226,126,127);fill-rule:nonzero;"/>
                    </g>
                    <g transform="matrix(0.364095,0,0,0.364095,482.485,172.657)">
                        <path d="M245.55,253.77C246.93,270.44 245.16,287.26 246.43,303.97C245.31,308.13 245.61,314.93 250.76,316.24C260.46,316.96 270.67,318.25 280.29,316.32C284.33,315.15 284.66,310.37 286.38,307.2C291.05,305.34 295.56,307.71 300.15,308.28C299.47,308.9 298.8,309.53 298.11,310.15C294.57,309.7 291,308.61 287.43,309.17C284.41,325.27 262.57,317.35 251.22,318.83C247.99,317.26 244.09,315.09 243.99,311.02C243.98,293.33 244.04,275.66 243.98,257.98C243.85,256.37 244.19,254.77 245.55,253.77Z" style="fill:rgb(210,52,48);fill-rule:nonzero;"/>
                    </g>
                    <g transform="matrix(0.364095,0,0,0.364095,482.485,172.657)">
                        <path d="M243.05,258.05L243.98,257.98C244.04,275.66 243.98,293.33 243.99,311.02C241.72,295.22 243.54,275.4 243.05,258.05Z" style="fill:rgb(237,194,193);fill-rule:nonzero;"/>
                    </g>
                    <g transform="matrix(0.364095,0,0,0.364095,482.485,172.657)">
                        <path d="M278.21,275.46C288.06,277.09 291.66,289.25 301.13,291.85C312.43,293.87 323.21,289.9 333.04,284.84C330.82,289.06 327.18,292.26 323.52,295.22C318.65,288.79 310.65,299.57 304.33,295.59C297.17,294.01 285.05,288.95 280.66,297.65C279.83,308.1 264.56,300.97 258,302.97C246.2,305.4 252.21,290.65 251.05,284L252,284C252.93,288.73 250.3,296.85 253.03,300.01C256.99,301.17 256.33,297.38 256.11,294.24C265.44,291.2 267.39,276.75 278.21,275.46Z" style="fill:rgb(179,31,28);fill-rule:nonzero;"/>
                    </g>
                    <g transform="matrix(0.364095,0,0,0.364095,482.485,172.657)">
                        <path d="M382.22,276.8C382.81,276.09 383.43,275.39 384.06,274.7C386.47,279.2 386.77,284.98 382.65,288.66C364.98,307.18 350.58,331.62 353.71,358.25C351.83,350.97 350.46,343.35 351.57,335.84C351.83,336.44 352.35,337.65 352.61,338.25C355.89,318.73 367.7,302.05 380.68,287.66C383.53,284.69 385.35,280.17 382.22,276.8Z" style="fill:rgb(202,54,51);fill-rule:nonzero;"/>
                    </g>
                    <g transform="matrix(0.364095,0,0,0.364095,482.485,172.657)">
                        <path d="M382.22,276.8C385.35,280.17 383.53,284.69 380.68,287.66C367.7,302.05 355.89,318.73 352.61,338.25C352.35,337.65 351.83,336.44 351.57,335.84C353.55,313.03 367.24,293.31 382.22,276.8Z" style="fill:rgb(17,7,5);fill-rule:nonzero;"/>
                    </g>
                    <g transform="matrix(0.364095,0,0,0.364095,482.485,172.657)">
                        <path d="M287.24,298.14C293.98,297.53 300.44,300.28 307.02,301.29C304.93,303.81 302.51,306.02 300.15,308.28C295.56,307.71 291.05,305.34 286.38,307.2C284.66,310.37 284.33,315.15 280.29,316.32C270.45,315.9 260.6,315.86 250.76,316.24C245.61,314.93 245.31,308.13 246.43,303.97C253.37,312.24 265.88,306.35 275,307.95C282.66,310.19 283.94,302.36 287.24,298.14Z" style="fill:rgb(8,3,3);fill-rule:nonzero;"/>
                    </g>
                    <g transform="matrix(0.364095,0,0,0.364095,482.485,172.657)">
                        <path d="M289.47,335.82C294.27,321.4 304.75,307.61 317.92,299.91C318.01,300.32 318.18,301.13 318.27,301.53C304.5,309.45 295.4,323.48 290.22,338.2C290.03,337.61 289.66,336.41 289.47,335.82Z" style="fill:rgb(188,57,43);fill-rule:nonzero;"/>
                    </g>
                    <g transform="matrix(0.364095,0,0,0.364095,482.485,172.657)">
                        <path d="M290.22,338.2C295.4,323.48 304.5,309.45 318.27,301.53C318.95,303.01 318.75,304.39 317.26,305.24C306.8,313.18 298.45,324.24 294.69,336.91C292.61,341.66 291.57,346.77 290.74,351.87C289.58,353 289.6,354.68 290.14,356.11C290.04,357.37 289.95,358.63 289.86,359.89C288.48,360.89 288.62,362.71 289.23,364.11C288.22,367.88 289.92,376 284.01,375.07C283.77,362.51 286.26,350.07 290.22,338.2Z" style="fill:rgb(248,237,236);fill-rule:nonzero;"/>
                    </g>
                    <g transform="matrix(0.364095,0,0,0.364095,482.485,172.657)">
                        <path d="M343.92,316.06C348.42,316.78 349.51,312.14 352.3,310.58C345.23,330.26 343.15,353.39 353.66,372.31C357.48,377.04 351.8,382.75 347.94,384.98C328.97,385.01 310,385.02 291.03,384.98C280.3,379.99 281.09,368.09 283.2,358.09C284.42,350.47 286.27,342.87 289.47,335.82C289.66,336.41 290.03,337.61 290.22,338.2C286.26,350.07 283.77,362.51 284.01,375.07C289.92,376 288.22,367.88 289.23,364.11C290.43,363.01 290.39,361.31 289.86,359.89C289.95,358.63 290.04,357.37 290.14,356.11C291.53,355.1 291.36,353.26 290.74,351.87C291.57,346.77 292.61,341.66 294.69,336.91C311.69,331.63 327.44,322.81 343.92,316.06M349.06,371.98C348.9,374.69 348.9,377.4 349.05,380.12C354.25,380.42 354.35,370.75 349.06,371.98Z" style="fill:rgb(176,29,28);fill-rule:nonzero;"/>
                    </g>
                    <g transform="matrix(0.364095,0,0,0.364095,482.485,172.657)">
                        <path d="M250.76,316.24C260.6,315.86 270.45,315.9 280.29,316.32C270.67,318.25 260.46,316.96 250.76,316.24Z" style="fill:rgb(67,13,12);fill-rule:nonzero;"/>
                    </g>
                    <g transform="matrix(0.364095,0,0,0.364095,482.485,172.657)">
                        <path d="M290.14,356.11C289.6,354.68 289.58,353 290.74,351.87C291.36,353.26 291.53,355.1 290.14,356.11Z" style="fill:rgb(215,143,143);fill-rule:nonzero;"/>
                    </g>
                    <g transform="matrix(0.364095,0,0,0.364095,482.485,172.657)">
                        <path d="M289.23,364.11C288.62,362.71 288.48,360.89 289.86,359.89C290.39,361.31 290.43,363.01 289.23,364.11Z" style="fill:rgb(212,138,135);fill-rule:nonzero;"/>
                    </g>
                    <g transform="matrix(0.364095,0,0,0.364095,482.485,172.657)">
                        <path d="M276.52,363.75C277.18,368.41 276.9,373.13 277.05,377.84C274.64,387 282.4,395.4 289.78,399.21C309.45,400.24 329.72,400.9 349.28,399.28C354.55,395.52 364.43,387.7 359.05,380.63C359.63,380 360.22,379.39 360.83,378.8C366.82,387.52 356.84,396.67 350.26,401.29C329.84,400.72 309.42,401.09 289,401.02C278.99,396.95 271.56,384.98 275.49,373.91C275.63,372.48 275.91,369.63 276.06,368.21C276.01,366.69 276.16,365.21 276.52,363.75Z" style="fill:rgb(209,47,47);fill-rule:nonzero;"/>
                    </g>
                    <g transform="matrix(0.364095,0,0,0.364095,482.485,172.657)">
                        <path d="M275.49,373.91C274.24,372.55 273.79,368.49 276.06,368.21C275.91,369.63 275.63,372.48 275.49,373.91Z" style="fill:rgb(231,135,140);fill-rule:nonzero;"/>
                    </g>
                    <g transform="matrix(0.364095,0,0,0.364095,482.485,172.657)">
                        <path d="M349.06,371.98C354.35,370.75 354.25,380.42 349.05,380.12C348.9,377.4 348.9,374.69 349.06,371.98Z" style="fill:rgb(242,223,220);fill-rule:nonzero;"/>
                    </g>
                    <g transform="matrix(0.364095,0,0,0.364095,482.485,172.657)">
                        <path d="M277.05,377.84C280.98,382.2 283.78,388.56 289.78,390.21C309.47,391.29 329.66,391.82 349.28,390.31C354.13,389.06 355.66,383.73 359.05,380.63C364.43,387.7 354.55,395.52 349.28,399.28C329.45,398.83 309.61,398.86 289.78,399.21C282.4,395.4 274.64,387 277.05,377.84Z" style="fill:rgb(5,2,2);fill-rule:nonzero;"/>
                    </g>
                    <g transform="matrix(0.364095,0,0,0.364095,482.485,172.657)">
                        <path d="M291.03,384.98C310,385.02 328.97,385.01 347.94,384.98C331.07,387.32 309.64,385.42 291.02,385.94L291.03,384.98Z" style="fill:rgb(215,103,26);fill-rule:nonzero;"/>
                    </g>
                    <g transform="matrix(0.364095,0,0,0.364095,482.485,172.657)">
                        <path d="M289.78,390.21C309.61,389.88 329.45,389.79 349.28,390.31C329.66,391.82 309.47,391.29 289.78,390.21Z" style="fill:rgb(135,78,13);fill-rule:nonzero;"/>
                    </g>
                    <g transform="matrix(0.364095,0,0,0.364095,482.485,172.657)">
                        <path d="M289.78,399.21C309.61,398.86 329.45,398.83 349.28,399.28C329.72,400.9 309.45,400.24 289.78,399.21Z" style="fill:rgb(146,28,26);fill-rule:nonzero;"/>
                    </g>
                    <g transform="matrix(0.364095,0,0,0.364095,482.485,172.657)">
                        <path d="M289,401.02C309.42,401.09 329.84,400.72 350.26,401.29C329.87,402.94 309.33,401.54 288.88,402.01L289,401.02Z" style="fill:rgb(208,142,140);fill-rule:nonzero;"/>
                    </g>
                </g>
                <g transform="matrix(0.924064,0,0,0.924064,262.644,-26.4389)">
                    <g transform="matrix(0.364095,0,0,0.364095,482.485,172.657)">
                        <path d="M245.55,253.77C244.83,249.56 246.98,243.22 251.98,243C260.66,242.99 269.34,243 278.02,242.99C281.75,242.34 281.7,248.01 284.04,248.79C299.63,241.69 318.99,239.78 334.32,248.65C342.89,252.59 353.37,251.43 361.11,246.15C365.68,243.05 370.84,246.91 372.73,251.22C376.14,259.11 383.84,265.71 384.06,274.7C383.43,275.39 382.81,276.09 382.22,276.8C367.24,293.31 353.55,313.03 351.57,335.84C350.46,343.35 351.83,350.97 353.71,358.25C355.44,365.34 360.25,371.33 360.83,378.8C360.22,379.39 359.63,380 359.05,380.63C355.66,383.73 354.13,389.06 349.28,390.31C329.45,389.79 309.61,389.88 289.78,390.21C283.78,388.56 280.98,382.2 277.05,377.84C276.9,373.13 277.18,368.41 276.52,363.75C279.07,349.7 282.4,335.45 289.52,322.89C292.3,318.58 294.92,314.16 298.11,310.15C298.8,309.53 299.47,308.9 300.15,308.28C302.51,306.02 304.93,303.81 307.02,301.29C300.44,300.28 293.98,297.53 287.24,298.14C283.94,302.36 282.66,310.19 275,307.95C265.88,306.35 253.37,312.24 246.43,303.97C245.16,287.26 246.93,270.44 245.55,253.77M251.16,249.23C250.61,260.79 251.14,272.41 251.05,284C252.21,290.65 246.2,305.4 258,302.97C264.56,300.97 279.83,308.1 280.66,297.65C285.05,288.95 297.17,294.01 304.33,295.59C310.65,299.57 318.65,288.79 323.52,295.22C321.81,296.96 319.22,297.88 317.92,299.91C304.75,307.61 294.27,321.4 289.47,335.82C286.27,342.87 284.42,350.47 283.2,358.09C281.09,368.09 280.3,379.99 291.03,384.98L291.02,385.94C309.64,385.42 331.07,387.32 347.94,384.98C351.8,382.75 357.48,377.04 353.66,372.31C343.15,353.39 345.23,330.26 352.3,310.58C359.33,296.99 369.13,283.94 379.03,272.01C374.91,265.12 371.2,257.95 366.74,251.26C364.18,248.92 361.5,252.33 359,253C349.7,257.94 338.3,256.48 329.19,251.78C317.31,245.32 302.92,247.4 290.69,251.67C286.4,254.03 280.17,255.49 278.09,249.79C278.05,249.36 277.97,248.5 277.93,248.07C269.25,248.8 259.03,246.18 251.16,249.23Z" style="fill:rgb(244,144,32);fill-rule:nonzero;"/>
                    </g>
                    <g transform="matrix(0.364095,0,0,0.364095,482.485,172.657)">
                        <path d="M251.16,249.23C259.03,246.18 269.25,248.8 277.93,248.07C277.97,248.5 278.05,249.36 278.09,249.79C272.61,246.11 273.05,254.77 277.96,254.16C292.95,256.95 307.87,244.24 322.71,251.26C335.82,257.07 351.36,264.26 365.14,256.17C370.8,257.64 372.36,267.07 375.68,271.74C367.93,281.41 359.42,290.78 354.32,302.24C351.53,307.33 349.6,313.48 343.92,316.06C327.44,322.81 311.69,331.63 294.69,336.91C298.45,324.24 306.8,313.18 317.26,305.24C318.75,304.39 318.95,303.01 318.27,301.53C318.18,301.13 318.01,300.32 317.92,299.91C319.22,297.88 321.81,296.96 323.52,295.22C327.18,292.26 330.82,289.06 333.04,284.84C323.21,289.9 312.43,293.87 301.13,291.85C291.66,289.25 288.06,277.09 278.21,275.46C267.39,276.75 265.44,291.2 256.11,294.24C255.79,280.18 256.23,266.12 255.95,252.06C256.3,250.53 253.07,248.77 252.8,250.75C251.06,261.71 252.38,272.93 252,284L251.05,284C251.14,272.41 250.61,260.79 251.16,249.23Z" style="fill:rgb(214,39,39);fill-rule:nonzero;"/>
                    </g>
                    <g transform="matrix(0.364095,0,0,0.364095,482.485,172.657)">
                        <path d="M382.22,276.8C382.81,276.09 383.43,275.39 384.06,274.7C386.47,279.2 386.77,284.98 382.65,288.66C364.98,307.18 350.58,331.62 353.71,358.25C351.83,350.97 350.46,343.35 351.57,335.84C351.83,336.44 352.35,337.65 352.61,338.25C355.89,318.73 367.7,302.05 380.68,287.66C383.53,284.69 385.35,280.17 382.22,276.8Z" style="fill:rgb(202,54,51);fill-rule:nonzero;"/>
                    </g>
                    <g transform="matrix(0.364095,0,0,0.364095,482.485,172.657)">
                        <path d="M382.22,276.8C385.35,280.17 383.53,284.69 380.68,287.66C367.7,302.05 355.89,318.73 352.61,338.25C352.35,337.65 351.83,336.44 351.57,335.84C353.55,313.03 367.24,293.31 382.22,276.8Z" style="fill:rgb(17,7,5);fill-rule:nonzero;"/>
                    </g>
                    <g transform="matrix(0.364095,0,0,0.364095,482.485,172.657)">
                        <path d="M289.47,335.82C294.27,321.4 304.75,307.61 317.92,299.91C318.01,300.32 318.18,301.13 318.27,301.53C304.5,309.45 295.4,323.48 290.22,338.2C290.03,337.61 289.66,336.41 289.47,335.82Z" style="fill:rgb(188,57,43);fill-rule:nonzero;"/>
                    </g>
                    <g transform="matrix(0.364095,0,0,0.364095,482.485,172.657)">
                        <path d="M290.22,338.2C295.4,323.48 304.5,309.45 318.27,301.53C318.95,303.01 318.75,304.39 317.26,305.24C306.8,313.18 298.45,324.24 294.69,336.91C292.61,341.66 291.57,346.77 290.74,351.87C289.58,353 289.6,354.68 290.14,356.11C290.04,357.37 289.95,358.63 289.86,359.89C288.48,360.89 288.62,362.71 289.23,364.11C288.22,367.88 289.92,376 284.01,375.07C283.77,362.51 286.26,350.07 290.22,338.2Z" style="fill:rgb(248,237,236);fill-rule:nonzero;"/>
                    </g>
                    <g transform="matrix(0.364095,0,0,0.364095,482.485,172.657)">
                        <path d="M343.92,316.06C348.42,316.78 349.51,312.14 352.3,310.58C345.23,330.26 343.15,353.39 353.66,372.31C357.48,377.04 351.8,382.75 347.94,384.98C328.97,385.01 310,385.02 291.03,384.98C280.3,379.99 281.09,368.09 283.2,358.09C284.42,350.47 286.27,342.87 289.47,335.82C289.66,336.41 290.03,337.61 290.22,338.2C286.26,350.07 283.77,362.51 284.01,375.07C289.92,376 288.22,367.88 289.23,364.11C290.43,363.01 290.39,361.31 289.86,359.89C289.95,358.63 290.04,357.37 290.14,356.11C291.53,355.1 291.36,353.26 290.74,351.87C291.57,346.77 292.61,341.66 294.69,336.91C311.69,331.63 327.44,322.81 343.92,316.06M349.06,371.98C348.9,374.69 348.9,377.4 349.05,380.12C354.25,380.42 354.35,370.75 349.06,371.98Z" style="fill:rgb(176,29,28);fill-rule:nonzero;"/>
                    </g>
                    <g transform="matrix(0.364095,0,0,0.364095,482.485,172.657)">
                        <path d="M290.14,356.11C289.6,354.68 289.58,353 290.74,351.87C291.36,353.26 291.53,355.1 290.14,356.11Z" style="fill:rgb(215,143,143);fill-rule:nonzero;"/>
                    </g>
                    <g transform="matrix(0.364095,0,0,0.364095,482.485,172.657)">
                        <path d="M289.23,364.11C288.62,362.71 288.48,360.89 289.86,359.89C290.39,361.31 290.43,363.01 289.23,364.11Z" style="fill:rgb(212,138,135);fill-rule:nonzero;"/>
                    </g>
                    <g transform="matrix(0.364095,0,0,0.364095,482.485,172.657)">
                        <path d="M276.52,363.75C277.18,368.41 276.9,373.13 277.05,377.84C274.64,387 282.4,395.4 289.78,399.21C309.45,400.24 329.72,400.9 349.28,399.28C354.55,395.52 364.43,387.7 359.05,380.63C359.63,380 360.22,379.39 360.83,378.8C366.82,387.52 356.84,396.67 350.26,401.29C329.84,400.72 309.42,401.09 289,401.02C278.99,396.95 271.56,384.98 275.49,373.91C275.63,372.48 275.91,369.63 276.06,368.21C276.01,366.69 276.16,365.21 276.52,363.75Z" style="fill:rgb(209,47,47);fill-rule:nonzero;"/>
                    </g>
                    <g transform="matrix(0.364095,0,0,0.364095,482.485,172.657)">
                        <path d="M275.49,373.91C274.24,372.55 273.79,368.49 276.06,368.21C275.91,369.63 275.63,372.48 275.49,373.91Z" style="fill:rgb(231,135,140);fill-rule:nonzero;"/>
                    </g>
                    <g transform="matrix(0.364095,0,0,0.364095,482.485,172.657)">
                        <path d="M349.06,371.98C354.35,370.75 354.25,380.42 349.05,380.12C348.9,377.4 348.9,374.69 349.06,371.98Z" style="fill:rgb(242,223,220);fill-rule:nonzero;"/>
                    </g>
                    <g transform="matrix(0.364095,0,0,0.364095,482.485,172.657)">
                        <path d="M277.05,377.84C280.98,382.2 283.78,388.56 289.78,390.21C309.47,391.29 329.66,391.82 349.28,390.31C354.13,389.06 355.66,383.73 359.05,380.63C364.43,387.7 354.55,395.52 349.28,399.28C329.45,398.83 309.61,398.86 289.78,399.21C282.4,395.4 274.64,387 277.05,377.84Z" style="fill:rgb(5,2,2);fill-rule:nonzero;"/>
                    </g>
                    <g transform="matrix(0.364095,0,0,0.364095,482.485,172.657)">
                        <path d="M291.03,384.98C310,385.02 328.97,385.01 347.94,384.98C331.07,387.32 309.64,385.42 291.02,385.94L291.03,384.98Z" style="fill:rgb(215,103,26);fill-rule:nonzero;"/>
                    </g>
                    <g transform="matrix(0.364095,0,0,0.364095,482.485,172.657)">
                        <path d="M289.78,390.21C309.61,389.88 329.45,389.79 349.28,390.31C329.66,391.82 309.47,391.29 289.78,390.21Z" style="fill:rgb(135,78,13);fill-rule:nonzero;"/>
                    </g>
                    <g transform="matrix(0.364095,0,0,0.364095,482.485,172.657)">
                        <path d="M289.78,399.21C309.61,398.86 329.45,398.83 349.28,399.28C329.72,400.9 309.45,400.24 289.78,399.21Z" style="fill:rgb(146,28,26);fill-rule:nonzero;"/>
                    </g>
                    <g transform="matrix(0.364095,0,0,0.364095,482.485,172.657)">
                        <path d="M289,401.02C309.42,401.09 329.84,400.72 350.26,401.29C329.87,402.94 309.33,401.54 288.88,402.01L289,401.02Z" style="fill:rgb(208,142,140);fill-rule:nonzero;"/>
                    </g>
                </g>
                <g transform="matrix(0.345217,0,0,0.345217,707.934,272.211)">
                    <g>
                        <path d="M289.99,66.02C304.43,64.29 325.52,64.34 340.03,65.99C323.35,66.03 306.67,65.95 289.99,66.02Z" style="fill:rgb(114,150,194);fill-rule:nonzero;"/>
                        <path d="M262.34,75.35C271.45,72.02 280.63,68.55 289.99,66.02C306.67,65.95 323.35,66.03 340.03,65.99C350.84,70.34 364.45,70.99 372.27,80.73C378.77,89.59 391.29,94.9 393.63,106.28C394.72,111.93 397.32,117.22 398.02,122.93C370.47,152.64 342.76,182.64 314.99,212.22C310.86,208.62 307.16,204.55 303.11,200.87C280.8,176.21 258.16,151.77 235.15,127.76C227.55,120.08 237.1,108.26 238.26,99.26C246.3,91.31 254.1,83.08 262.34,75.35M291,69.01C281.86,71.27 273.18,75.21 264.32,78.34C256.8,85.46 249.62,92.96 242.25,100.24C238.01,106.92 237.11,115.19 235.23,122.73C261.58,151.08 288.31,179.1 314.17,207.89C340.72,180.39 366.39,151.58 392.96,123.98C395.14,116.5 389.62,108.78 388.72,101.28C384.03,96.3 379.01,91.65 374.25,86.75C365.72,75.31 350.76,73.06 338.03,68.98L337.96,68.04C322.63,68.59 304.71,66.66 291,69.01Z" style="fill:rgb(62,108,176);fill-rule:nonzero;"/>
                        <path d="M291,69.01C304.71,66.66 322.63,68.59 337.96,68.04L338.03,68.98C322.35,69.03 306.67,68.96 291,69.01Z" style="fill:rgb(128,156,200);fill-rule:nonzero;"/>
                        <path d="M264.32,78.34C273.18,75.21 281.86,71.27 291,69.01C306.67,68.96 322.35,69.03 338.03,68.98C350.76,73.06 365.72,75.31 374.25,86.75C379.01,91.65 384.03,96.3 388.72,101.28C389.62,108.78 395.14,116.5 392.96,123.98C366.39,151.58 340.72,180.39 314.17,207.89C288.31,179.1 261.58,151.08 235.23,122.73C237.11,115.19 238.01,106.92 242.25,100.24C249.62,92.96 256.8,85.46 264.32,78.34M269.85,78.93C281.97,79.4 294.22,78.08 306.26,80.17C289.84,85.23 271.9,87.46 254.74,90.28C262.22,96.31 272.19,98.52 279.36,104.93C278.28,105.64 277.21,106.37 276.22,107.18C266.47,110.22 257.73,116.69 247.66,118.91C249.51,109.51 252.05,100.25 253.99,90.87C253.16,91.72 251.3,92.29 251.42,93.65C242.34,99.24 239.11,109.89 237.92,119.99C235.86,124.05 242.92,127.53 245.05,130.43C245.46,131.26 246.09,131.75 246.95,131.91C252.04,138.75 259.1,143.82 265.15,149.74C267.06,156.94 274.96,160.97 278.84,167.18C290.12,178.54 300.25,191.52 312.26,201.81C312.78,202.7 313.39,203.52 314.1,204.27C314.04,206.21 318.29,201.22 318.99,200.06C329.1,190.91 337.87,180.19 346.92,170.04C359.64,157.98 371.05,144.32 383.09,131.54C384.52,131.45 385.01,131 384.54,130.2C386.46,126.98 393.85,123.7 391.08,120.01C391,119.57 390.85,118.7 390.77,118.27C391.66,106.15 383.33,96.34 373.87,89.95C374.23,91.46 375.09,92.75 375.9,94.05C371.71,96.2 368.16,100.29 363.12,100.12C362.13,97.53 358.88,97.38 356.71,96.27C337.96,88.6 318.91,81.7 300.37,73.57C290.48,67.6 278.81,75.23 269.85,78.93Z" style="fill:rgb(223,242,251);fill-rule:nonzero;"/>
                        <path d="M269.85,78.93C278.81,75.23 290.48,67.6 300.37,73.57C318.91,81.7 337.96,88.6 356.71,96.27C358.88,97.38 362.13,97.53 363.12,100.12C357.34,100.91 351.55,101.61 345.79,102.5C339.86,103.16 333.99,104.17 328.1,105.09L327.25,105.19C322.23,105.07 317.22,105.1 312.22,104.78C301.58,103.95 290.58,103.02 280.03,104.73L279.36,104.93C272.19,98.52 262.22,96.31 254.74,90.28C271.9,87.46 289.84,85.23 306.26,80.17C294.22,78.08 281.97,79.4 269.85,78.93Z" style="fill:rgb(182,233,246);fill-rule:nonzero;"/>
                        <path d="M373.87,89.95C383.33,96.34 391.66,106.15 390.77,118.27C385.61,110.32 380.83,102.14 375.9,94.05C375.09,92.75 374.23,91.46 373.87,89.95Z" style="fill:rgb(179,229,244);fill-rule:nonzero;"/>
                        <path d="M251.42,93.65C251.3,92.29 253.16,91.72 253.99,90.87C252.05,100.25 249.51,109.51 247.66,118.91C246.63,122.28 246.17,125.73 246.81,129.23C246.37,129.53 245.49,130.13 245.05,130.43C242.92,127.53 235.86,124.05 237.92,119.99C242.16,111.34 249.5,102.99 251.42,93.65Z" style="fill:rgb(95,206,251);fill-rule:nonzero;"/>
                        <path d="M237.92,119.99C239.11,109.89 242.34,99.24 251.42,93.65C249.5,102.99 242.16,111.34 237.92,119.99Z" style="fill:rgb(75,132,206);fill-rule:nonzero;"/>
                        <path d="M363.12,100.12C368.16,100.29 371.71,96.2 375.9,94.05C380.83,102.14 385.61,110.32 390.77,118.27C390.85,118.7 391,119.57 391.08,120.01C382.29,114.65 375.33,106.76 366.77,101.07C364.8,100.35 365.03,102.43 364.74,103.72C358.93,113.67 358.83,124.92 359.94,136.14C357.53,133.87 355.1,131.62 352.86,129.18C352.77,121.09 351.7,113 349.9,105.12C349.65,103.07 347.38,102.86 345.79,102.5C351.55,101.61 357.34,100.91 363.12,100.12Z" style="fill:rgb(57,114,194);fill-rule:nonzero;"/>
                        <path d="M364.74,103.72C365.03,102.43 364.8,100.35 366.77,101.07C372.27,110.98 377.68,121.14 384.54,130.2C385.01,131 384.52,131.45 383.09,131.54C377.93,132.44 372.56,133.17 367.89,135.71C365.55,136.09 363.23,136.51 360.89,136.87C361.03,125.7 364.5,114.85 364.74,103.72Z" style="fill:rgb(177,230,246);fill-rule:nonzero;"/>
                        <path d="M366.77,101.07C375.33,106.76 382.29,114.65 391.08,120.01C393.85,123.7 386.46,126.98 384.54,130.2C377.68,121.14 372.27,110.98 366.77,101.07Z" style="fill:rgb(40,177,245);fill-rule:nonzero;"/>
                        <path d="M328.1,105.09C333.99,104.17 339.86,103.16 345.79,102.5C347.38,102.86 349.65,103.07 349.9,105.12C351.7,113 352.77,121.09 352.86,129.18C349.75,126.35 346.43,123.77 343.33,120.94C338.37,115.82 333.37,110.72 328.12,105.89L328.1,105.09Z" style="fill:rgb(53,103,175);fill-rule:nonzero;"/>
                        <path d="M280.03,104.73C290.58,103.02 301.58,103.95 312.22,104.78C304.07,104.93 295.91,105.01 287.76,105.17C286.05,105.08 282.63,104.9 280.92,104.81L280.03,104.73Z" style="fill:rgb(112,197,234);fill-rule:nonzero;"/>
                        <path d="M359.94,136.14C358.83,124.92 358.93,113.67 364.74,103.72C364.5,114.85 361.03,125.7 360.89,136.87L359.98,137.01L359.94,136.14Z" style="fill:rgb(96,144,209);fill-rule:nonzero;"/>
                        <path d="M279.36,104.93L280.03,104.73C279.03,108.86 277.46,112.81 276.06,116.81C275.04,116.79 273.54,115.62 272.82,116.78C269.2,121.39 264.47,125.51 262.04,130.88C263.89,133.17 266.96,134.32 269.28,136.18L268.98,137.04C261.66,135.21 254.39,133.17 246.95,131.91C246.09,131.75 245.46,131.26 245.05,130.43C245.49,130.13 246.37,129.53 246.81,129.23C256.3,121.46 267.04,115.35 276.22,107.18C277.21,106.37 278.28,105.64 279.36,104.93Z" style="fill:rgb(57,111,186);fill-rule:nonzero;"/>
                        <path d="M280.03,104.73L280.92,104.81C286.42,116.14 292.5,127.17 298.31,138.33C288.63,139.5 278.66,138.21 268.98,137.04L269.28,136.18C271.53,129.72 274.22,123.4 276.06,116.81C277.46,112.81 279.03,108.86 280.03,104.73Z" style="fill:rgb(220,243,252);fill-rule:nonzero;"/>
                        <path d="M280.92,104.81C282.63,104.9 286.05,105.08 287.76,105.17C296.14,111.03 305.69,114.82 314.3,120.29C308.89,126.14 304.82,133.73 298.31,138.33C292.5,127.17 286.42,116.14 280.92,104.81Z" style="fill:rgb(38,177,246);fill-rule:nonzero;"/>
                        <path d="M287.76,105.17C295.91,105.01 304.07,104.93 312.22,104.78C317.22,105.1 322.23,105.07 327.25,105.19C323.23,110.47 318.94,115.55 314.3,120.29C305.69,114.82 296.14,111.03 287.76,105.17Z" style="fill:rgb(31,151,212);fill-rule:nonzero;"/>
                        <path d="M327.25,105.19L328.1,105.09L328.12,105.89C327.58,115.6 329.57,125.17 330.08,134.84C330.1,136.25 330.11,137.66 330.13,139.08C324.35,139.01 318.58,138.99 312.82,139.02C308.19,139.03 303.57,138.77 298.96,139.09C299.4,144.53 301.13,149.77 302.47,155.04C306.2,171.21 310.01,187.37 314.37,203.39L314.1,204.27C313.39,203.52 312.78,202.7 312.26,201.81C306.5,193.48 302.03,184.01 294.08,177.46C295.77,175.42 292.9,173.57 292.19,171.84C284.06,160.5 276.74,148.63 268.98,137.04C278.66,138.21 288.63,139.5 298.31,138.33C304.82,133.73 308.89,126.14 314.3,120.29C318.94,115.55 323.23,110.47 327.25,105.19Z" style="fill:rgb(90,207,253);fill-rule:nonzero;"/>
                        <path d="M328.12,105.89C333.37,110.72 338.37,115.82 343.33,120.94C340.8,127.17 335.91,132.14 331.39,136.98C331.06,136.45 330.41,135.37 330.08,134.84C329.57,125.17 327.58,115.6 328.12,105.89Z" style="fill:rgb(220,242,251);fill-rule:nonzero;"/>
                        <path d="M247.66,118.91C257.73,116.69 266.47,110.22 276.22,107.18C267.04,115.35 256.3,121.46 246.81,129.23C246.17,125.73 246.63,122.28 247.66,118.91Z" style="fill:rgb(178,230,245);fill-rule:nonzero;"/>
                        <path d="M272.82,116.78C273.54,115.62 275.04,116.79 276.06,116.81C274.22,123.4 271.53,129.72 269.28,136.18C266.96,134.32 263.89,133.17 262.04,130.88C264.47,125.51 269.2,121.39 272.82,116.78Z" style="fill:rgb(90,137,205);fill-rule:nonzero;"/>
                        <path d="M343.33,120.94C346.43,123.77 349.75,126.35 352.86,129.18C355.1,131.62 357.53,133.87 359.94,136.14L359.98,137.01C358.43,137.19 355.33,137.57 353.78,137.76C345.85,137.57 338.02,138.73 330.13,139.08C330.11,137.66 330.1,136.25 330.08,134.84C330.41,135.37 331.06,136.45 331.39,136.98C335.91,132.14 340.8,127.17 343.33,120.94Z" style="fill:rgb(195,226,239);fill-rule:nonzero;"/>
                        <path d="M235.15,127.76C258.16,151.77 280.8,176.21 303.11,200.87C289.93,190.99 279.31,176.61 267.43,164.61C257.35,151.86 243.12,141.55 235.15,127.76Z" style="fill:rgb(195,200,204);fill-rule:nonzero;"/>
                        <path d="M367.89,135.71C372.56,133.17 377.93,132.44 383.09,131.54C371.05,144.32 359.64,157.98 346.92,170.04C352.04,157.57 361.97,147.81 367.89,135.71Z" style="fill:rgb(82,195,231);fill-rule:nonzero;"/>
                        <path d="M246.95,131.91C254.39,133.17 261.66,135.21 268.98,137.04C276.74,148.63 284.06,160.5 292.19,171.84C292.9,173.57 295.77,175.42 294.08,177.46C284.81,167.82 274.62,159.17 265.15,149.74C259.1,143.82 252.04,138.75 246.95,131.91Z" style="fill:rgb(41,178,247);fill-rule:nonzero;"/>
                        <path d="M360.89,136.87C363.23,136.51 365.55,136.09 367.89,135.71C361.97,147.81 352.04,157.57 346.92,170.04C337.87,180.19 329.1,190.91 318.99,200.06C325.25,188.01 334.15,177.64 341.11,166.01C347.19,156.81 354.3,148.07 359.17,138.16C357.37,137.95 355.57,137.84 353.78,137.76C355.33,137.57 358.43,137.19 359.98,137.01L360.89,136.87Z" style="fill:rgb(89,206,250);fill-rule:nonzero;"/>
                        <path d="M330.13,139.08C338.02,138.73 345.85,137.57 353.78,137.76C355.57,137.84 357.37,137.95 359.17,138.16C354.3,148.07 347.19,156.81 341.11,166.01C332.84,170.55 327.31,178.54 319.71,183.93C323.01,168.95 327.78,154.24 330.13,139.08Z" style="fill:rgb(37,176,247);fill-rule:nonzero;"/>
                        <path d="M298.96,139.09C303.57,138.77 308.19,139.03 312.82,139.02C314.22,148.55 319.85,156.85 321.84,166.25C314.53,164.66 309.75,153.19 302.47,155.04C301.13,149.77 299.4,144.53 298.96,139.09Z" style="fill:rgb(56,114,196);fill-rule:nonzero;"/>
                        <path d="M312.82,139.02C318.58,138.99 324.35,139.01 330.13,139.08C327.78,154.24 323.01,168.95 319.71,183.93C317.01,190.13 317.53,197.44 314.37,203.39C310.01,187.37 306.2,171.21 302.47,155.04C309.75,153.19 314.53,164.66 321.84,166.25C319.85,156.85 314.22,148.55 312.82,139.02Z" style="fill:rgb(50,104,178);fill-rule:nonzero;"/>
                        <path d="M265.15,149.74C274.62,159.17 284.81,167.82 294.08,177.46C302.03,184.01 306.5,193.48 312.26,201.81C300.25,191.52 290.12,178.54 278.84,167.18C274.96,160.97 267.06,156.94 265.15,149.74Z" style="fill:rgb(178,231,246);fill-rule:nonzero;"/>
                        <path d="M319.71,183.93C327.31,178.54 332.84,170.55 341.11,166.01C334.15,177.64 325.25,188.01 318.99,200.06C318.29,201.22 314.04,206.21 314.1,204.27L314.37,203.39C317.53,197.44 317.01,190.13 319.71,183.93Z" style="fill:rgb(34,151,212);fill-rule:nonzero;"/>
                    </g>
                </g>
                <g transform="matrix(0.345217,0,0,0.345217,624.388,346.553)">
                    <g>
                        <path d="M289.99,66.02C304.43,64.29 325.52,64.34 340.03,65.99C323.35,66.03 306.67,65.95 289.99,66.02Z" style="fill:rgb(114,150,194);fill-rule:nonzero;"/>
                        <path d="M262.34,75.35C271.45,72.02 280.63,68.55 289.99,66.02C306.67,65.95 323.35,66.03 340.03,65.99C350.84,70.34 364.45,70.99 372.27,80.73C378.77,89.59 391.29,94.9 393.63,106.28C394.72,111.93 397.32,117.22 398.02,122.93C370.47,152.64 342.76,182.64 314.99,212.22C310.86,208.62 307.16,204.55 303.11,200.87C280.8,176.21 258.16,151.77 235.15,127.76C227.55,120.08 237.1,108.26 238.26,99.26C246.3,91.31 254.1,83.08 262.34,75.35M291,69.01C281.86,71.27 273.18,75.21 264.32,78.34C256.8,85.46 249.62,92.96 242.25,100.24C238.01,106.92 237.11,115.19 235.23,122.73C261.58,151.08 288.31,179.1 314.17,207.89C340.72,180.39 366.39,151.58 392.96,123.98C395.14,116.5 389.62,108.78 388.72,101.28C384.03,96.3 379.01,91.65 374.25,86.75C365.72,75.31 350.76,73.06 338.03,68.98L337.96,68.04C322.63,68.59 304.71,66.66 291,69.01Z" style="fill:rgb(62,108,176);fill-rule:nonzero;"/>
                        <path d="M291,69.01C304.71,66.66 322.63,68.59 337.96,68.04L338.03,68.98C322.35,69.03 306.67,68.96 291,69.01Z" style="fill:rgb(128,156,200);fill-rule:nonzero;"/>
                        <path d="M264.32,78.34C273.18,75.21 281.86,71.27 291,69.01C306.67,68.96 322.35,69.03 338.03,68.98C350.76,73.06 365.72,75.31 374.25,86.75C379.01,91.65 384.03,96.3 388.72,101.28C389.62,108.78 395.14,116.5 392.96,123.98C366.39,151.58 340.72,180.39 314.17,207.89C288.31,179.1 261.58,151.08 235.23,122.73C237.11,115.19 238.01,106.92 242.25,100.24C249.62,92.96 256.8,85.46 264.32,78.34M269.85,78.93C281.97,79.4 294.22,78.08 306.26,80.17C289.84,85.23 271.9,87.46 254.74,90.28C262.22,96.31 272.19,98.52 279.36,104.93C278.28,105.64 277.21,106.37 276.22,107.18C266.47,110.22 257.73,116.69 247.66,118.91C249.51,109.51 252.05,100.25 253.99,90.87C253.16,91.72 251.3,92.29 251.42,93.65C242.34,99.24 239.11,109.89 237.92,119.99C235.86,124.05 242.92,127.53 245.05,130.43C245.46,131.26 246.09,131.75 246.95,131.91C252.04,138.75 259.1,143.82 265.15,149.74C267.06,156.94 274.96,160.97 278.84,167.18C290.12,178.54 300.25,191.52 312.26,201.81C312.78,202.7 313.39,203.52 314.1,204.27C314.04,206.21 318.29,201.22 318.99,200.06C329.1,190.91 337.87,180.19 346.92,170.04C359.64,157.98 371.05,144.32 383.09,131.54C384.52,131.45 385.01,131 384.54,130.2C386.46,126.98 393.85,123.7 391.08,120.01C391,119.57 390.85,118.7 390.77,118.27C391.66,106.15 383.33,96.34 373.87,89.95C374.23,91.46 375.09,92.75 375.9,94.05C371.71,96.2 368.16,100.29 363.12,100.12C362.13,97.53 358.88,97.38 356.71,96.27C337.96,88.6 318.91,81.7 300.37,73.57C290.48,67.6 278.81,75.23 269.85,78.93Z" style="fill:rgb(223,242,251);fill-rule:nonzero;"/>
                        <path d="M269.85,78.93C278.81,75.23 290.48,67.6 300.37,73.57C318.91,81.7 337.96,88.6 356.71,96.27C358.88,97.38 362.13,97.53 363.12,100.12C357.34,100.91 351.55,101.61 345.79,102.5C339.86,103.16 333.99,104.17 328.1,105.09L327.25,105.19C322.23,105.07 317.22,105.1 312.22,104.78C301.58,103.95 290.58,103.02 280.03,104.73L279.36,104.93C272.19,98.52 262.22,96.31 254.74,90.28C271.9,87.46 289.84,85.23 306.26,80.17C294.22,78.08 281.97,79.4 269.85,78.93Z" style="fill:rgb(182,233,246);fill-rule:nonzero;"/>
                        <path d="M373.87,89.95C383.33,96.34 391.66,106.15 390.77,118.27C385.61,110.32 380.83,102.14 375.9,94.05C375.09,92.75 374.23,91.46 373.87,89.95Z" style="fill:rgb(179,229,244);fill-rule:nonzero;"/>
                        <path d="M251.42,93.65C251.3,92.29 253.16,91.72 253.99,90.87C252.05,100.25 249.51,109.51 247.66,118.91C246.63,122.28 246.17,125.73 246.81,129.23C246.37,129.53 245.49,130.13 245.05,130.43C242.92,127.53 235.86,124.05 237.92,119.99C242.16,111.34 249.5,102.99 251.42,93.65Z" style="fill:rgb(95,206,251);fill-rule:nonzero;"/>
                        <path d="M237.92,119.99C239.11,109.89 242.34,99.24 251.42,93.65C249.5,102.99 242.16,111.34 237.92,119.99Z" style="fill:rgb(75,132,206);fill-rule:nonzero;"/>
                        <path d="M363.12,100.12C368.16,100.29 371.71,96.2 375.9,94.05C380.83,102.14 385.61,110.32 390.77,118.27C390.85,118.7 391,119.57 391.08,120.01C382.29,114.65 375.33,106.76 366.77,101.07C364.8,100.35 365.03,102.43 364.74,103.72C358.93,113.67 358.83,124.92 359.94,136.14C357.53,133.87 355.1,131.62 352.86,129.18C352.77,121.09 351.7,113 349.9,105.12C349.65,103.07 347.38,102.86 345.79,102.5C351.55,101.61 357.34,100.91 363.12,100.12Z" style="fill:rgb(57,114,194);fill-rule:nonzero;"/>
                        <path d="M364.74,103.72C365.03,102.43 364.8,100.35 366.77,101.07C372.27,110.98 377.68,121.14 384.54,130.2C385.01,131 384.52,131.45 383.09,131.54C377.93,132.44 372.56,133.17 367.89,135.71C365.55,136.09 363.23,136.51 360.89,136.87C361.03,125.7 364.5,114.85 364.74,103.72Z" style="fill:rgb(177,230,246);fill-rule:nonzero;"/>
                        <path d="M366.77,101.07C375.33,106.76 382.29,114.65 391.08,120.01C393.85,123.7 386.46,126.98 384.54,130.2C377.68,121.14 372.27,110.98 366.77,101.07Z" style="fill:rgb(40,177,245);fill-rule:nonzero;"/>
                        <path d="M328.1,105.09C333.99,104.17 339.86,103.16 345.79,102.5C347.38,102.86 349.65,103.07 349.9,105.12C351.7,113 352.77,121.09 352.86,129.18C349.75,126.35 346.43,123.77 343.33,120.94C338.37,115.82 333.37,110.72 328.12,105.89L328.1,105.09Z" style="fill:rgb(53,103,175);fill-rule:nonzero;"/>
                        <path d="M280.03,104.73C290.58,103.02 301.58,103.95 312.22,104.78C304.07,104.93 295.91,105.01 287.76,105.17C286.05,105.08 282.63,104.9 280.92,104.81L280.03,104.73Z" style="fill:rgb(112,197,234);fill-rule:nonzero;"/>
                        <path d="M359.94,136.14C358.83,124.92 358.93,113.67 364.74,103.72C364.5,114.85 361.03,125.7 360.89,136.87L359.98,137.01L359.94,136.14Z" style="fill:rgb(96,144,209);fill-rule:nonzero;"/>
                        <path d="M279.36,104.93L280.03,104.73C279.03,108.86 277.46,112.81 276.06,116.81C275.04,116.79 273.54,115.62 272.82,116.78C269.2,121.39 264.47,125.51 262.04,130.88C263.89,133.17 266.96,134.32 269.28,136.18L268.98,137.04C261.66,135.21 254.39,133.17 246.95,131.91C246.09,131.75 245.46,131.26 245.05,130.43C245.49,130.13 246.37,129.53 246.81,129.23C256.3,121.46 267.04,115.35 276.22,107.18C277.21,106.37 278.28,105.64 279.36,104.93Z" style="fill:rgb(57,111,186);fill-rule:nonzero;"/>
                        <path d="M280.03,104.73L280.92,104.81C286.42,116.14 292.5,127.17 298.31,138.33C288.63,139.5 278.66,138.21 268.98,137.04L269.28,136.18C271.53,129.72 274.22,123.4 276.06,116.81C277.46,112.81 279.03,108.86 280.03,104.73Z" style="fill:rgb(220,243,252);fill-rule:nonzero;"/>
                        <path d="M280.92,104.81C282.63,104.9 286.05,105.08 287.76,105.17C296.14,111.03 305.69,114.82 314.3,120.29C308.89,126.14 304.82,133.73 298.31,138.33C292.5,127.17 286.42,116.14 280.92,104.81Z" style="fill:rgb(38,177,246);fill-rule:nonzero;"/>
                        <path d="M287.76,105.17C295.91,105.01 304.07,104.93 312.22,104.78C317.22,105.1 322.23,105.07 327.25,105.19C323.23,110.47 318.94,115.55 314.3,120.29C305.69,114.82 296.14,111.03 287.76,105.17Z" style="fill:rgb(31,151,212);fill-rule:nonzero;"/>
                        <path d="M327.25,105.19L328.1,105.09L328.12,105.89C327.58,115.6 329.57,125.17 330.08,134.84C330.1,136.25 330.11,137.66 330.13,139.08C324.35,139.01 318.58,138.99 312.82,139.02C308.19,139.03 303.57,138.77 298.96,139.09C299.4,144.53 301.13,149.77 302.47,155.04C306.2,171.21 310.01,187.37 314.37,203.39L314.1,204.27C313.39,203.52 312.78,202.7 312.26,201.81C306.5,193.48 302.03,184.01 294.08,177.46C295.77,175.42 292.9,173.57 292.19,171.84C284.06,160.5 276.74,148.63 268.98,137.04C278.66,138.21 288.63,139.5 298.31,138.33C304.82,133.73 308.89,126.14 314.3,120.29C318.94,115.55 323.23,110.47 327.25,105.19Z" style="fill:rgb(90,207,253);fill-rule:nonzero;"/>
                        <path d="M328.12,105.89C333.37,110.72 338.37,115.82 343.33,120.94C340.8,127.17 335.91,132.14 331.39,136.98C331.06,136.45 330.41,135.37 330.08,134.84C329.57,125.17 327.58,115.6 328.12,105.89Z" style="fill:rgb(220,242,251);fill-rule:nonzero;"/>
                        <path d="M247.66,118.91C257.73,116.69 266.47,110.22 276.22,107.18C267.04,115.35 256.3,121.46 246.81,129.23C246.17,125.73 246.63,122.28 247.66,118.91Z" style="fill:rgb(178,230,245);fill-rule:nonzero;"/>
                    </g>
                </g>
                <g transform="matrix(0.335964,0,0,0.335964,541.579,211.309)">
                    <path d="M311.72,436.71C313.76,433.68 318.05,436.41 319.04,438.92C324.95,451.32 331.64,463.35 336.93,476.04C338.26,478.93 340.38,482.22 343.96,482.21C357.3,484.3 370.77,485.76 384,488.51C385.2,489.05 386.53,489.18 387.85,488.99C389.96,488.58 391.47,490.64 392.28,492.29C383.06,506.89 367.33,516.21 356.24,529.43C357.36,546.39 361.99,563.03 363.97,579.92C363.86,581.86 361.38,582.46 360,583.41C347.43,576.75 334.86,570.06 322.2,563.58C319.25,562.11 316.16,558.6 312.66,560.65C298.62,567.78 284.82,575.4 270.83,582.64C267.42,584.45 264.14,578.78 266.08,576C268.45,561.96 270.41,547.82 273.6,533.92C273.58,532.7 273.56,530.24 273.54,529.02C261.13,518.24 249.83,506.27 238.23,494.66C235.19,489.48 240.35,488.89 243.41,488.52C249.71,488.11 255.86,486.1 262.16,486C263.46,486.21 264.79,486.05 266,485.52C269.34,484.81 272.7,483.75 276.16,484C277.46,484.21 278.79,484.05 280,483.51C283.63,482.07 289.26,483.42 290.96,478.96C297.96,464.93 305.36,451.03 311.72,436.71M291.99,485.03C275.93,488.54 257.78,489.27 242.93,493.02L241.91,492.86C252.92,505.66 266.38,516.31 278.22,528.26C275.85,544.63 271.01,560.86 270.28,577.34C270.18,577.77 269.98,578.62 269.88,579.05C284.47,570.93 299.49,563.59 314.24,555.78C330.06,562.28 344.63,571.68 360.14,578.97C360.05,578.55 359.89,577.73 359.8,577.31C357.6,561.14 354.1,545.1 351.72,528.93C363.12,517.61 374.01,505.7 386.08,495.11C387.9,494.63 389.18,490.63 386.3,492.44C370.84,489.89 355.36,487.33 339.76,485.81C339.44,484.6 336,484.66 335.95,482.02C328.79,467.98 322.17,453.65 314.99,439.65C306.81,454.44 299.74,469.96 291.99,485.03Z" style="fill:rgb(88,86,79);fill-rule:nonzero;"/>
                    <path d="M291.99,485.03C299.74,469.96 306.81,454.44 314.99,439.65C314.88,463.14 315.23,486.65 314.89,510.14C306.3,503.33 299.9,493.01 291.99,485.03Z" style="fill:rgb(252,222,6);fill-rule:nonzero;"/>
                    <path d="M314.99,439.65C322.17,453.65 328.79,467.98 335.95,482.02C336,484.66 339.44,484.6 339.76,485.81C329.78,491.4 322.85,501.96 315.7,510.79C339.27,504.95 363.21,499.91 386.3,492.44C389.18,490.63 387.9,494.63 386.08,495.11C374.01,505.7 363.12,517.61 351.72,528.93C339.9,523.01 328.1,516.81 315.75,512.1C330.29,533.89 344.25,556.25 359.8,577.31C359.89,577.73 360.05,578.55 360.14,578.97C344.63,571.68 330.06,562.28 314.24,555.78C315.15,541.18 315.93,526.08 314.36,511.6C290.81,504.53 266.64,499.55 242.93,493.02C257.78,489.27 275.93,488.54 291.99,485.03C299.9,493.01 306.3,503.33 314.89,510.14C315.23,486.65 314.88,463.14 314.99,439.65Z" style="fill:rgb(242,161,2);fill-rule:nonzero;"/>
                    <path d="M315.7,510.79C322.85,501.96 329.78,491.4 339.76,485.81C355.36,487.33 370.84,489.89 386.3,492.44C363.21,499.91 339.27,504.95 315.7,510.79Z" style="fill:rgb(252,222,5);fill-rule:nonzero;"/>
                    <path d="M241.91,492.86L242.93,493.02C266.64,499.55 290.81,504.53 314.36,511.6C302.26,517.04 290.29,522.75 278.22,528.26C266.38,516.31 252.92,505.66 241.91,492.86Z" style="fill:rgb(252,223,6);fill-rule:nonzero;"/>
                    <path d="M278.22,528.26C290.29,522.75 302.26,517.04 314.36,511.6C299.96,533.69 285.43,555.75 270.28,577.34C271.01,560.86 275.85,544.63 278.22,528.26Z" style="fill:rgb(242,162,2);fill-rule:nonzero;"/>
                    <path d="M314.36,511.6C315.93,526.08 315.15,541.18 314.24,555.78C299.49,563.59 284.47,570.93 269.88,579.05C269.98,578.62 270.18,577.77 270.28,577.34C285.43,555.75 299.96,533.69 314.36,511.6Z" style="fill:rgb(252,222,5);fill-rule:nonzero;"/>
                    <path d="M315.75,512.1C328.1,516.81 339.9,523.01 351.72,528.93C354.1,545.1 357.6,561.14 359.8,577.31C344.25,556.25 330.29,533.89 315.75,512.1Z" style="fill:rgb(252,222,6);fill-rule:nonzero;"/>
                </g>
                <g transform="matrix(0.335964,0,0,0.335964,622.941,67.6143)">
                    <path d="M311.72,436.71C313.76,433.68 318.05,436.41 319.04,438.92C324.95,451.32 331.64,463.35 336.93,476.04C338.26,478.93 340.38,482.22 343.96,482.21C357.3,484.3 370.77,485.76 384,488.51C385.2,489.05 386.53,489.18 387.85,488.99C389.96,488.58 391.47,490.64 392.28,492.29C383.06,506.89 367.33,516.21 356.24,529.43C357.36,546.39 361.99,563.03 363.97,579.92C363.86,581.86 361.38,582.46 360,583.41C347.43,576.75 334.86,570.06 322.2,563.58C319.25,562.11 316.16,558.6 312.66,560.65C298.62,567.78 284.82,575.4 270.83,582.64C267.42,584.45 264.14,578.78 266.08,576C268.45,561.96 270.41,547.82 273.6,533.92C273.58,532.7 273.56,530.24 273.54,529.02C261.13,518.24 249.83,506.27 238.23,494.66C235.19,489.48 240.35,488.89 243.41,488.52C249.71,488.11 255.86,486.1 262.16,486C263.46,486.21 264.79,486.05 266,485.52C269.34,484.81 272.7,483.75 276.16,484C277.46,484.21 278.79,484.05 280,483.51C283.63,482.07 289.26,483.42 290.96,478.96C297.96,464.93 305.36,451.03 311.72,436.71M291.99,485.03C275.93,488.54 257.78,489.27 242.93,493.02L241.91,492.86C252.92,505.66 266.38,516.31 278.22,528.26C275.85,544.63 271.01,560.86 270.28,577.34C270.18,577.77 269.98,578.62 269.88,579.05C284.47,570.93 299.49,563.59 314.24,555.78C330.06,562.28 344.63,571.68 360.14,578.97C360.05,578.55 359.89,577.73 359.8,577.31C357.6,561.14 354.1,545.1 351.72,528.93C363.12,517.61 374.01,505.7 386.08,495.11C387.9,494.63 389.18,490.63 386.3,492.44C370.84,489.89 355.36,487.33 339.76,485.81C339.44,484.6 336,484.66 335.95,482.02C328.79,467.98 322.17,453.65 314.99,439.65C306.81,454.44 299.74,469.96 291.99,485.03Z" style="fill:rgb(88,86,79);fill-rule:nonzero;"/>
                    <path d="M314.99,439.65C322.17,453.65 328.79,467.98 335.95,482.02C336,484.66 339.44,484.6 339.76,485.81C329.78,491.4 322.85,501.96 315.7,510.79C339.27,504.95 363.21,499.91 386.3,492.44C389.18,490.63 387.9,494.63 386.08,495.11C374.01,505.7 363.12,517.61 351.72,528.93C339.9,523.01 328.1,516.81 315.75,512.1C330.29,533.89 344.25,556.25 359.8,577.31C359.89,577.73 360.05,578.55 360.14,578.97C344.63,571.68 330.06,562.28 314.24,555.78C315.15,541.18 315.93,526.08 314.36,511.6C290.81,504.53 266.64,499.55 242.93,493.02C257.78,489.27 275.93,488.54 291.99,485.03C299.9,493.01 306.3,503.33 314.89,510.14C315.23,486.65 314.88,463.14 314.99,439.65Z" style="fill:rgb(242,161,2);fill-rule:nonzero;"/>
                    <path d="M241.91,492.86L242.93,493.02C266.64,499.55 290.81,504.53 314.36,511.6C302.26,517.04 290.29,522.75 278.22,528.26C266.38,516.31 252.92,505.66 241.91,492.86Z" style="fill:rgb(252,223,6);fill-rule:nonzero;"/>
                    <path d="M278.22,528.26C290.29,522.75 302.26,517.04 314.36,511.6C299.96,533.69 285.43,555.75 270.28,577.34C271.01,560.86 275.85,544.63 278.22,528.26Z" style="fill:rgb(242,162,2);fill-rule:nonzero;"/>
                    <path d="M314.36,511.6C315.93,526.08 315.15,541.18 314.24,555.78C299.49,563.59 284.47,570.93 269.88,579.05C269.98,578.62 270.18,577.77 270.28,577.34C285.43,555.75 299.96,533.69 314.36,511.6Z" style="fill:rgb(252,222,5);fill-rule:nonzero;"/>
                    <path d="M315.75,512.1C328.1,516.81 339.9,523.01 351.72,528.93C354.1,545.1 357.6,561.14 359.8,577.31C344.25,556.25 330.29,533.89 315.75,512.1Z" style="fill:rgb(252,222,6);fill-rule:nonzero;"/>
                </g>
                <g transform="matrix(0.336986,0,0,0.336986,648.207,343.232)">
                    <path d="M535.41,61.46C538.75,59.81 543.98,60.6 543.33,65.14C532.51,71.78 511.02,72.65 512.95,90.9C511.17,90.89 507.6,90.85 505.81,90.83C506.23,88.96 506.18,87.04 505.98,85.15C506.37,83.85 506.74,82.54 507.09,81.22C511.09,69.31 523.98,63.85 535.41,61.46Z" style="fill:rgb(104,143,53);fill-rule:nonzero;"/>
                    <path d="M460.38,63.38C478.06,60.07 494.12,70.57 507.09,81.22C506.74,82.54 506.37,83.85 505.98,85.15L505.4,85.03C504.66,84.24 503.92,83.46 503.17,82.69C501.02,80.27 497.16,77.28 493.98,79.95C482.06,96.96 458.12,97.35 439.96,92.05C438.61,91.74 437.31,91.29 436.03,90.81C439.32,78.72 447.72,66.69 460.38,63.38Z" style="fill:rgb(114,158,64);fill-rule:nonzero;"/>
                    <path d="M505.4,85.03L505.98,85.15C506.18,87.04 506.23,88.96 505.81,90.83L505.18,90.84C504.66,88.92 504.76,86.9 505.4,85.03Z" style="fill:rgb(181,193,146);fill-rule:nonzero;"/>
                    <path d="M490.97,92.18C495.69,91.51 500.38,90.73 505.18,90.84L505.81,90.83C507.6,90.85 511.17,90.89 512.95,90.9C514.28,91.16 515.62,91.45 516.95,91.75C533.3,95.44 548.21,105.68 556.78,120.17C569.67,143.59 565.43,175.17 544.82,192.82C527.38,209.45 499.44,213 478.18,201.72C448.69,187.52 437.42,146.52 455.07,119.06C459.71,110.45 467.22,104.02 475.24,98.66C480.4,96.3 485.55,93.89 490.97,92.18M529.28,102.16C523.76,104.98 529.82,112.57 534.37,109.41C540.75,107.74 533.58,99.33 529.28,102.16M467.29,112.22C442.75,132.91 450.71,174.37 475.04,191.06C473.63,182.7 467.7,175.84 465.41,167.65C460.88,151.79 461.44,133.07 471.18,119.21C473.18,116.34 473.8,108.13 467.29,112.22M540,117C549.36,131.84 552.12,150.53 546.41,167.26C540.74,167.43 544.07,175.98 538.44,175.45C534.82,177.98 535.9,180.62 537.04,184.02C533.53,181.69 528.72,182.1 527.54,187.64C521.51,187.51 517.76,192.86 512.35,194.39C507.98,196.24 501.34,196.29 499.09,200.84C509.58,204.45 521.49,199.61 531.98,196.95C547.08,189.88 561.63,173.01 558.89,156.86C562.26,141.53 557.14,123.25 544.99,113.02C542.1,110.03 537.14,113.43 540,117Z" style="fill:rgb(251,142,54);fill-rule:nonzero;"/>
                    <path d="M529.28,102.16C533.58,99.33 540.75,107.74 534.37,109.41C529.82,112.57 523.76,104.98 529.28,102.16Z" style="fill:rgb(253,249,244);fill-rule:nonzero;"/>
                    <path d="M467.29,112.22C473.8,108.13 473.18,116.34 471.18,119.21C461.44,133.07 460.88,151.79 465.41,167.65C467.7,175.84 473.63,182.7 475.04,191.06C450.71,174.37 442.75,132.91 467.29,112.22Z" style="fill:rgb(253,195,118);fill-rule:nonzero;"/>
                    <path d="M540,117C537.14,113.43 542.1,110.03 544.99,113.02C557.14,123.25 562.26,141.53 558.89,156.86C554.88,169.91 548.29,184.87 535.92,191.12C538.62,182.84 544.19,175.74 546.41,167.26C552.12,150.53 549.36,131.84 540,117Z" style="fill:rgb(252,249,244);fill-rule:nonzero;"/>
                </g>
            </g>
        </g>
    </g>
</svg>
